<svg width="24" height="24" viewBox="0 0 24 24" fill="none" xmlns="http://www.w3.org/2000/svg">
<g id="Funnel" clip-path="url(#clip0_264_621)">
<path id="Vector" d="M3.19688 5.75438C3.09929 5.64697 3.03495 5.51357 3.01167 5.37033C2.98839 5.22709 3.00716 5.08018 3.06571 4.94739C3.12426 4.81461 3.22008 4.70167 3.34154 4.62226C3.463 4.54284 3.60489 4.50038 3.75001 4.5H20.25C20.3953 4.50001 20.5374 4.54222 20.6592 4.62149C20.7809 4.70076 20.877 4.81368 20.9358 4.94654C20.9946 5.07939 21.0135 5.22646 20.9903 5.36987C20.9671 5.51328 20.9027 5.64686 20.805 5.75438L14.4544 12.5334C14.3242 12.6725 14.2518 12.8558 14.2519 13.0463V18.2484C14.252 18.3719 14.2215 18.4936 14.1633 18.6025C14.1051 18.7114 14.0209 18.8043 13.9181 18.8728L10.9181 20.8725C10.8053 20.9483 10.6739 20.992 10.5381 20.9989C10.4024 21.0058 10.2673 20.9757 10.1473 20.9118C10.0273 20.8478 9.92696 20.7525 9.85699 20.6359C9.78701 20.5193 9.75003 20.386 9.75001 20.25V13.0463C9.75007 12.8558 9.67767 12.6725 9.54751 12.5334L3.19688 5.75438Z" stroke="black" stroke-linecap="round" stroke-linejoin="round"/>
</g>
<defs>
<clipPath id="clip0_264_621">
<rect width="24" height="24" fill="white"/>
</clipPath>
</defs>
</svg>
